<svg width="374" height="209" viewBox="0 0 374 209" fill="none" xmlns="http://www.w3.org/2000/svg">
<rect width="374" height="209" fill="white"/>
<g filter="url(#filter0_b_1707_13)">
<path d="M71.7171 85.6054H80.2187L92.2856 110.233L104.298 85.6054H112.744V124H106.053L105.998 96.5753L94.6441 120.051H89.8722L78.5184 96.5753V124H71.7171V85.6054ZM134.514 127.675C132.649 132.557 129.194 134.97 124.532 134.97C121.679 134.97 119.485 134.147 117.237 132.337L120.308 126.907C121.679 127.949 122.776 128.388 124.093 128.388C125.958 128.388 127.439 127.456 128.371 125.426L129.249 123.506L117.127 94.6555H124.532L132.869 115.992L140.493 94.6555H147.678L134.514 127.675ZM176.197 95.6977C172.083 93.2294 167.64 91.9679 164.678 91.9679C161.223 91.9679 158.974 93.2294 158.974 95.588C158.974 103.377 179.597 99.1532 179.543 112.92C179.543 120.106 173.29 124.274 164.843 124.274C158.7 124.274 152.721 121.806 148.607 118.131L151.679 111.933C155.628 115.443 160.839 117.583 164.953 117.583C169.066 117.583 171.535 116.047 171.535 113.359C171.535 105.351 150.911 109.904 150.911 96.2462C150.911 89.5545 156.67 85.2763 165.282 85.2763C170.383 85.2763 175.484 86.9218 179.159 89.3351L176.197 95.6977ZM223.747 123.397L226.6 128.388C223.638 131.076 219.579 132.611 215.959 132.611C211.022 132.611 206.634 129.54 203.727 124.329C192.264 124.219 183.488 115.773 183.488 104.803C183.488 93.7231 192.373 85.386 203.947 85.386C215.52 85.386 224.406 93.7779 224.406 104.803C224.406 113.469 218.921 120.599 210.967 123.232C212.777 125.262 214.752 126.468 216.836 126.468C218.811 126.468 221.279 125.316 223.747 123.397ZM191.002 104.803C191.002 112.043 196.981 117.747 204.056 117.747C211.077 117.747 216.891 112.043 216.891 104.803C216.891 97.5626 211.077 91.9679 204.056 91.9679C196.926 91.9679 191.002 97.5626 191.002 104.803ZM231.284 85.6054H238.634V117.363H255.198V124H231.284V85.6054ZM289.579 85.2214C297.587 85.2214 302.524 89.0609 302.524 95.3137C302.524 98.8789 300.494 101.841 297.203 103.431C301.646 105.077 304.498 108.642 304.498 113.195C304.498 120.051 298.739 124.329 289.634 124.329C280.529 124.329 274.77 120.106 274.77 113.304C274.77 108.697 277.732 105.077 282.394 103.431C278.829 101.676 276.69 98.6595 276.69 95.0395C276.69 89.006 281.681 85.2214 289.579 85.2214ZM289.634 90.487C285.356 90.487 282.888 92.4067 282.888 95.6977C282.888 98.9886 285.356 100.908 289.634 100.908C293.912 100.908 296.326 98.9886 296.326 95.6977C296.326 92.4067 293.912 90.487 289.634 90.487ZM289.579 106.613C284.588 106.613 281.681 108.752 281.681 112.482C281.681 116.376 284.588 118.57 289.634 118.57C294.625 118.57 297.587 116.376 297.587 112.536C297.587 108.807 294.625 106.613 289.579 106.613Z" fill="black" fill-opacity="0.58"/>
</g>
<defs>
<filter id="filter0_b_1707_13" x="61.7168" y="75.2212" width="252.781" height="69.7485" filterUnits="userSpaceOnUse" color-interpolation-filters="sRGB">
<feFlood flood-opacity="0" result="BackgroundImageFix"/>
<feGaussianBlur in="BackgroundImageFix" stdDeviation="5"/>
<feComposite in2="SourceAlpha" operator="in" result="effect1_backgroundBlur_1707_13"/>
<feBlend mode="normal" in="SourceGraphic" in2="effect1_backgroundBlur_1707_13" result="shape"/>
</filter>
</defs>
</svg>
