<svg width="182" height="45" viewBox="0 0 182 45" fill="none" xmlns="http://www.w3.org/2000/svg">
<path d="M0.433488 8.26134H18.9735V10.3287L3.50125 29.1355H19.1402L19.1068 31.603H0V29.5356L15.4722 10.7289H0.433488V8.26134Z" fill="#A0A0A0"/>
<path d="M28.6821 13.9634C32.8836 13.9634 35.3512 16.531 35.3512 20.7992V31.603H32.7503V21.4661C32.7503 18.3316 30.8829 16.4643 27.7818 16.4643C24.0471 16.4976 21.8464 19.1652 21.8464 23V31.603H19.2454V6.86084H21.8464V17.9982C23.0468 15.2638 25.4477 13.9967 28.6821 13.9634Z" fill="#A0A0A0"/>
<path d="M43.6245 13.9634C48.8263 13.9634 52.5277 17.598 52.5277 22.7999C52.5277 28.0351 48.8263 31.7031 43.6245 31.7031C38.3893 31.7031 34.7213 28.0351 34.7213 22.7999C34.7213 17.598 38.3893 13.9634 43.6245 13.9634ZM43.6245 16.2642C39.9231 16.2642 37.3222 18.9652 37.3222 22.8332C37.3222 26.768 39.9231 29.4356 43.6245 29.4356C47.2924 29.4356 49.9267 26.768 49.9267 22.8332C49.9267 18.9652 47.2924 16.2642 43.6245 16.2642Z" fill="#A0A0A0"/>
<path d="M52.5998 8.26134C53.4668 8.26134 54.2004 8.8949 54.2004 9.9286C54.2004 10.4621 54.0003 10.8956 53.7002 11.3291L52.133 13.6966H50.6658L51.7662 11.2958C51.266 11.029 51.0326 10.4955 51.0326 9.9286C51.0326 8.96159 51.6995 8.26134 52.5998 8.26134Z" fill="#A0A0A0"/>
<path d="M63.6126 17.5313C62.2455 16.6643 60.4782 16.1308 58.8442 16.1308C56.8769 16.1308 55.3763 16.8311 55.3763 18.4983C55.3763 22.4664 65.1798 20.4324 65.1798 26.7346C65.1798 30.1692 62.1121 31.7031 58.7442 31.7031C56.2433 31.7031 53.6757 30.8361 52.0085 29.2355L53.0088 27.3348C54.5094 28.7353 56.7768 29.569 58.8442 29.569C60.9116 29.569 62.5789 28.7687 62.6123 27.0014C62.7123 22.7332 52.8754 24.9006 52.9088 18.6984C52.9088 15.3639 55.8098 13.93 59.011 13.93C61.1117 13.93 63.1458 14.5636 64.613 15.5306L63.6126 17.5313Z" fill="#A0A0A0"/>
<path d="M80.3162 8.26134C85.0179 8.26134 87.8856 10.4288 87.8856 14.0968C87.8856 16.8311 86.2517 18.7984 83.5507 19.3653C86.9186 19.8655 88.886 22.0663 88.886 25.2674C88.886 29.2355 85.7515 31.603 80.4496 31.603H70.4794V8.26134H80.3162ZM80.1829 18.365C83.3173 18.365 85.1513 16.9645 85.1513 14.4969C85.1513 12.096 83.3173 10.7289 80.1829 10.7289H73.147V18.365H80.1829ZM80.1829 29.1355C83.9842 29.1688 86.185 27.6349 86.185 24.934C86.185 22.333 83.9842 20.7992 80.1829 20.8325H73.147V29.1355H80.1829Z" fill="#A0A0A0"/>
<path d="M89.4802 6.86084H92.0811V31.603H89.4802V6.86084Z" fill="#A0A0A0"/>
<path d="M101.062 13.9634C106.264 13.9634 109.965 17.598 109.965 22.7999C109.965 28.0351 106.264 31.7031 101.062 31.7031C95.8265 31.7031 92.1585 28.0351 92.1585 22.7999C92.1585 17.598 95.8265 13.9634 101.062 13.9634ZM101.062 16.2642C97.3604 16.2642 94.7594 18.9652 94.7594 22.8332C94.7594 26.768 97.3604 29.4356 101.062 29.4356C104.73 29.4356 107.364 26.768 107.364 22.8332C107.364 18.9652 104.73 16.2642 101.062 16.2642Z" fill="#A0A0A0"/>
<path d="M122.575 14.0634H125.176V29.769C125.176 34.9042 121.675 38.1387 116.339 38.1387C113.572 38.1054 111.271 37.205 109.137 35.5711L110.337 33.6704C112.071 35.1043 113.905 35.8712 116.239 35.9046C120.074 35.9046 122.575 33.5371 122.575 29.8357V27.1681C121.341 29.5023 119.074 30.8361 116.106 30.8361C111.371 30.8361 108.103 27.3348 108.103 22.3664C108.103 17.4313 111.338 13.9967 116.039 13.9634C119.04 13.93 121.308 15.2972 122.575 17.6314V14.0634ZM116.573 28.702C120.074 28.702 122.575 26.0677 122.575 22.4331C122.575 18.7651 120.074 16.1308 116.573 16.1308C113.038 16.1308 110.571 18.7651 110.537 22.4331C110.571 26.0677 113.038 28.702 116.573 28.702Z" fill="#A0A0A0"/>
</svg>
